<?xml version="1.0" encoding="utf-8"?>
<!-- Generator: Adobe Illustrator 16.0.0, SVG Export Plug-In . SVG Version: 6.00 Build 0)  -->
<!DOCTYPE svg PUBLIC "-//W3C//DTD SVG 1.1//EN" "http://www.w3.org/Graphics/SVG/1.1/DTD/svg11.dtd">
<svg version="1.1" id="Layer_1" xmlns="http://www.w3.org/2000/svg" xmlns:xlink="http://www.w3.org/1999/xlink" x="0px" y="0px"
	 viewBox="0 0 322.017 64.44" enable-background="new 0 0 322.017 64.44" xml:space="preserve">
<g>
	<linearGradient id="SVGID_1_" gradientUnits="userSpaceOnUse" x1="28.0796" y1="63.8999" x2="28.0796" y2="0.4497">
		<stop  offset="0" style="stop-color:#75C58C"/>
		<stop  offset="1" style="stop-color:#00A99D"/>
	</linearGradient>
	<path fill="url(#SVGID_1_)" d="M1.485,62.46C0.495,61.501,0,60.151,0,58.41V5.94C0,4.2,0.495,2.851,1.485,1.89
		c0.99-0.959,2.354-1.44,4.095-1.44H23.4c10.379,0,18.434,2.776,24.165,8.325c5.729,5.55,8.595,13.335,8.595,23.355
		c0,10.08-2.865,17.896-8.595,23.445C41.834,61.125,33.78,63.9,23.4,63.9H5.58C3.839,63.9,2.475,63.42,1.485,62.46z M22.68,54.45
		c14.58,0,21.87-7.439,21.87-22.32c0-14.819-7.29-22.23-21.87-22.23H11.61v44.55H22.68z"/>
	<linearGradient id="SVGID_2_" gradientUnits="userSpaceOnUse" x1="84.96" y1="64.6201" x2="84.96" y2="18.8101">
		<stop  offset="0" style="stop-color:#75C58C"/>
		<stop  offset="1" style="stop-color:#00A99D"/>
	</linearGradient>
	<path fill="url(#SVGID_2_)" d="M104.175,53.01c0.63,0.781,0.944,1.831,0.944,3.15c0,1.861-1.11,3.42-3.33,4.68
		c-2.04,1.141-4.351,2.056-6.93,2.745c-2.58,0.689-5.04,1.035-7.38,1.035c-7.08,0-12.69-2.039-16.83-6.12
		c-4.14-4.08-6.21-9.66-6.21-16.74c0-4.5,0.9-8.489,2.7-11.97c1.8-3.479,4.334-6.179,7.604-8.1c3.27-1.919,6.976-2.88,11.115-2.88
		c3.96,0,7.41,0.87,10.351,2.61c2.938,1.741,5.22,4.201,6.84,7.38c1.62,3.181,2.43,6.93,2.43,11.25c0,2.581-1.141,3.87-3.42,3.87
		H75.51c0.359,4.14,1.529,7.186,3.51,9.135c1.98,1.951,4.86,2.925,8.64,2.925c1.92,0,3.614-0.239,5.085-0.72
		c1.47-0.479,3.135-1.139,4.995-1.98c1.8-0.959,3.119-1.44,3.96-1.44C102.719,51.84,103.545,52.231,104.175,53.01z M78.795,29.61
		c-1.831,1.921-2.926,4.68-3.285,8.28h20.34c-0.121-3.659-1.021-6.435-2.7-8.325c-1.681-1.89-4.021-2.835-7.02-2.835
		C83.07,26.73,80.625,27.69,78.795,29.61z"/>
	<linearGradient id="SVGID_3_" gradientUnits="userSpaceOnUse" x1="131.8047" y1="64.3501" x2="131.8047" y2="18.9897">
		<stop  offset="0" style="stop-color:#75C58C"/>
		<stop  offset="1" style="stop-color:#00A99D"/>
	</linearGradient>
	<path fill="url(#SVGID_3_)" d="M146.564,19.8c0.811-0.54,1.695-0.81,2.655-0.81c1.38,0,2.624,0.466,3.735,1.395
		c1.109,0.931,1.665,2.085,1.665,3.465c0,0.72-0.181,1.44-0.54,2.16l-16.65,34.83c-0.54,1.141-1.305,2.011-2.295,2.61
		c-0.99,0.599-2.085,0.9-3.285,0.9c-1.141,0-2.235-0.301-3.285-0.9c-1.05-0.599-1.845-1.469-2.385-2.61l-16.74-34.83
		c-0.301-0.599-0.449-1.29-0.449-2.07c0-1.379,0.585-2.55,1.755-3.51c1.17-0.959,2.504-1.44,4.005-1.44
		c2.16,0,3.749,1.051,4.77,3.15l12.601,27.81l12.51-27.72C145.109,21.15,145.754,20.34,146.564,19.8z"/>
	<linearGradient id="SVGID_4_" gradientUnits="userSpaceOnUse" x1="193.3174" y1="64.4399" x2="193.3174" y2="0">
		<stop  offset="0" style="stop-color:#75C58C"/>
		<stop  offset="1" style="stop-color:#00A99D"/>
	</linearGradient>
	<path fill="url(#SVGID_4_)" d="M222.659,1.575c1.02,1.051,1.529,2.446,1.529,4.185v53.28c0,1.68-0.48,3.001-1.439,3.96
		c-0.961,0.959-2.221,1.44-3.781,1.44s-2.789-0.481-3.689-1.44s-1.35-2.28-1.35-3.96V21.96l-15.301,28.98
		c-0.719,1.32-1.5,2.295-2.34,2.925c-0.84,0.63-1.83,0.945-2.971,0.945c-1.139,0-2.129-0.3-2.969-0.9
		c-0.842-0.599-1.621-1.589-2.34-2.97l-15.391-28.53v36.63c0,1.62-0.465,2.925-1.395,3.915c-0.931,0.99-2.176,1.485-3.735,1.485
		c-1.561,0-2.79-0.481-3.689-1.44c-0.9-0.959-1.351-2.28-1.351-3.96V5.76c0-1.739,0.495-3.134,1.485-4.185
		C164.923,0.526,166.257,0,167.938,0c2.34,0,4.17,1.291,5.491,3.87l19.98,38.07l19.889-38.07c1.32-2.579,3.09-3.87,5.311-3.87
		C220.288,0,221.638,0.526,222.659,1.575z"/>
	<linearGradient id="SVGID_5_" gradientUnits="userSpaceOnUse" x1="254.6963" y1="64.6201" x2="254.6963" y2="18.8101">
		<stop  offset="0" style="stop-color:#75C58C"/>
		<stop  offset="1" style="stop-color:#00A99D"/>
	</linearGradient>
	<path fill="url(#SVGID_5_)" d="M269.683,23.355c2.969,3.03,4.453,7.636,4.453,13.815v21.96c0,1.62-0.48,2.896-1.439,3.825
		c-0.961,0.931-2.281,1.395-3.959,1.395c-1.563,0-2.836-0.479-3.826-1.44c-0.99-0.959-1.484-2.219-1.484-3.78v-1.98
		c-1.021,2.34-2.625,4.171-4.814,5.49c-2.191,1.319-4.727,1.98-7.605,1.98c-2.941,0-5.611-0.601-8.01-1.8
		c-2.4-1.199-4.291-2.849-5.67-4.95c-1.381-2.1-2.07-4.44-2.07-7.02c0-3.24,0.824-5.79,2.475-7.65
		c1.65-1.859,4.334-3.209,8.055-4.05c3.721-0.839,8.85-1.26,15.391-1.26h2.25v-2.07c0-2.939-0.631-5.085-1.891-6.435
		s-3.301-2.025-6.119-2.025c-1.742,0-3.51,0.256-5.311,0.765c-1.799,0.51-3.93,1.246-6.391,2.205c-1.561,0.78-2.699,1.17-3.42,1.17
		c-1.08,0-1.965-0.39-2.654-1.17c-0.689-0.779-1.035-1.8-1.035-3.06c0-1.02,0.254-1.904,0.766-2.655
		c0.508-0.75,1.363-1.454,2.564-2.115c2.1-1.139,4.604-2.039,7.516-2.7c2.908-0.66,5.773-0.99,8.594-0.99
		C262.167,18.81,266.712,20.326,269.683,23.355z M260.591,53.505c1.891-2.009,2.836-4.604,2.836-7.785v-1.89h-1.619
		c-4.021,0-7.143,0.18-9.361,0.54c-2.221,0.36-3.811,0.99-4.77,1.89c-0.961,0.9-1.439,2.13-1.439,3.69
		c0,1.921,0.674,3.496,2.023,4.725c1.352,1.23,3.016,1.845,4.996,1.845C256.257,56.52,258.702,55.516,260.591,53.505z"/>
	<linearGradient id="SVGID_6_" gradientUnits="userSpaceOnUse" x1="302.5762" y1="64.6201" x2="302.5762" y2="18.8101">
		<stop  offset="0" style="stop-color:#75C58C"/>
		<stop  offset="1" style="stop-color:#00A99D"/>
	</linearGradient>
	<path fill="url(#SVGID_6_)" d="M293.532,61.83c-3.33-1.859-5.896-4.5-7.695-7.92c-1.801-3.42-2.701-7.409-2.701-11.97
		c0-4.559,0.945-8.595,2.836-12.105c1.889-3.51,4.545-6.224,7.965-8.145c3.42-1.919,7.35-2.88,11.789-2.88
		c2.34,0,4.695,0.33,7.066,0.99c2.369,0.661,4.455,1.561,6.254,2.7c1.92,1.26,2.881,2.851,2.881,4.77
		c0,1.32-0.316,2.385-0.945,3.195c-0.631,0.81-1.455,1.215-2.475,1.215c-0.662,0-1.35-0.149-2.07-0.45
		c-0.721-0.3-1.439-0.66-2.16-1.08c-1.32-0.779-2.58-1.395-3.779-1.845c-1.201-0.45-2.582-0.675-4.141-0.675
		c-3.721,0-6.586,1.215-8.596,3.645s-3.014,5.926-3.014,10.485c0,4.5,1.004,7.965,3.014,10.395c2.01,2.43,4.875,3.645,8.596,3.645
		c1.498,0,2.834-0.225,4.004-0.675c1.172-0.45,2.477-1.064,3.916-1.845c0.9-0.54,1.68-0.945,2.34-1.215s1.318-0.405,1.98-0.405
		c0.959,0,1.77,0.421,2.43,1.26c0.66,0.841,0.99,1.89,0.99,3.15c0,1.021-0.225,1.906-0.676,2.655
		c-0.449,0.751-1.186,1.426-2.205,2.025c-1.859,1.201-4.02,2.146-6.479,2.835c-2.461,0.689-4.982,1.035-7.561,1.035
		C300.716,64.62,296.86,63.69,293.532,61.83z"/>
</g>
</svg>